<mxfile host="app.diagrams.net" modified="2021-08-24T14:25:55.532Z" agent="5.0 (Macintosh; Intel Mac OS X 10_15_6) AppleWebKit/605.1.15 (KHTML, like Gecko) Version/14.1.2 Safari/605.1.15" etag="7hvvmsocp1tLcb-9YnMW" version="14.9.8" type="github">
  <diagram id="rZBvVixIBVX9mQDeIi11" name="Page-1">
    <mxGraphModel dx="994" dy="690" grid="1" gridSize="10" guides="1" tooltips="1" connect="1" arrows="1" fold="1" page="1" pageScale="1" pageWidth="827" pageHeight="1169" math="0" shadow="0">
      <root>
        <mxCell id="0" />
        <mxCell id="1" parent="0" />
        <mxCell id="7DXl7cOFKb6t4b405SfH-2" value="" style="rounded=0;whiteSpace=wrap;html=1;" vertex="1" parent="1">
          <mxGeometry x="300" y="230" width="556" height="670" as="geometry" />
        </mxCell>
        <mxCell id="7DXl7cOFKb6t4b405SfH-3" value="赛况回包处理" style="text;html=1;strokeColor=none;fillColor=none;align=center;verticalAlign=middle;whiteSpace=wrap;rounded=0;" vertex="1" parent="1">
          <mxGeometry x="294" y="230" width="148" height="80" as="geometry" />
        </mxCell>
        <mxCell id="7DXl7cOFKb6t4b405SfH-4" value="" style="rounded=1;whiteSpace=wrap;html=1;" vertex="1" parent="1">
          <mxGeometry x="318" y="300" width="520" height="110" as="geometry" />
        </mxCell>
        <mxCell id="7DXl7cOFKb6t4b405SfH-5" value="回包预处理" style="text;html=1;strokeColor=none;fillColor=none;align=center;verticalAlign=middle;whiteSpace=wrap;rounded=0;" vertex="1" parent="1">
          <mxGeometry x="332" y="310" width="72" height="20" as="geometry" />
        </mxCell>
        <mxCell id="7DXl7cOFKb6t4b405SfH-6" value="获取一级赛况数据列表" style="rounded=1;whiteSpace=wrap;html=1;" vertex="1" parent="1">
          <mxGeometry x="350" y="340" width="120" height="60" as="geometry" />
        </mxCell>
        <mxCell id="7DXl7cOFKb6t4b405SfH-8" value="获取节顶列表" style="rounded=1;whiteSpace=wrap;html=1;" vertex="1" parent="1">
          <mxGeometry x="500" y="340" width="120" height="60" as="geometry" />
        </mxCell>
        <mxCell id="7DXl7cOFKb6t4b405SfH-9" value="获取赛况置顶列表数据" style="rounded=1;whiteSpace=wrap;html=1;" vertex="1" parent="1">
          <mxGeometry x="660" y="340" width="120" height="60" as="geometry" />
        </mxCell>
      </root>
    </mxGraphModel>
  </diagram>
</mxfile>
